# xmcd
#
# Track frame offsets:
#	150
#	11311
#	24652
#	38165
#	48075
#	68521
#
# Disc length: 1075 seconds
#
# Revision: 1
# Processed by: cddbd v1.5.2PL0 Copyright (c) Steve Scherf et al.
# Submitted via: audiograbber 1.83.01
#
DISCID=3a043106
DTITLE=The Murray Hillbillies - The Murray Hillbillies
DYEAR=2002
DGENRE=Country
TTITLE0=If You've Got The Money
TTITLE1=I'm Walkin' The Dog
TTITLE2=It's Just You
TTITLE3=The Race Is On
TTITLE4=I'm In The Jailhouse Now
TTITLE5=Move It On Over
EXTD=
EXTT0=
EXTT1=
EXTT2=
EXTT3=
EXTT4=
EXTT5=
PLAYORDER=
